# Blender v2.63 (sub 0) OBJ File: ''
# www.blender.org
mtllib shrapnel.mtl
o Cube
v 11.676863 -13.999996 26.902954
v 11.676863 -13.999996 54.902954
v -16.323139 -13.999996 54.902954
v -16.323133 -13.999996 26.902946
v 11.676867 14.000002 26.902962
v 11.676850 14.000002 54.902966
v -16.323143 14.000002 54.902946
v -16.323139 14.000002 26.902954
v -2.323136 14.000002 12.902954
v -2.323136 -13.999996 12.902954
v 11.676863 -13.999996 26.902954
v 11.676867 14.000002 26.902962
v -2.323136 14.000002 12.902954
v -2.323136 -13.999996 12.902954
v 64.073837 -13.999992 -29.594513
v 64.073853 14.000006 -29.594513
v 44.274845 14.000006 -29.594513
v 44.274845 -13.999992 -29.594513
v -68.720093 -13.999992 -29.594536
v -68.720093 14.000007 -29.594528
v -48.921108 14.000007 -29.594513
v -48.921104 -13.999992 -29.594528
v 54.174343 -13.999992 -36.594513
v 54.174347 14.000006 -36.594528
v -58.820602 14.000007 -36.594528
v -58.820602 -13.999992 -36.594536
v 105.513466 -14.000021 -91.274414
v 105.513474 13.999978 -91.274414
v 93.563736 -14.000021 -89.224167
v 93.563736 13.999978 -89.224167
v 2.835228 14.000005 -91.274414
v 2.835228 -13.999995 -91.274414
v 14.784975 -13.999995 -89.224167
v 14.784980 14.000005 -89.224152
v -7.481432 14.000030 -91.274399
v -7.481439 -13.999969 -91.274414
v -19.431175 14.000030 -89.224152
v -19.431187 -13.999969 -89.224167
v -110.159721 -13.999972 -91.274414
v -110.159721 14.000029 -91.274414
v -98.209984 14.000029 -89.224167
v -98.209976 -13.999972 -89.224167
v -110.159721 -13.999972 -91.274414
v -110.159721 14.000029 -91.274414
v -98.209984 14.000029 -89.224167
v -98.209976 -13.999972 -89.224167
v 18.676855 -21.000002 82.283173
v -23.323147 -21.000002 82.283173
v 18.676842 21.000000 82.283180
v -23.323154 21.000000 82.283173
v 18.676851 -21.000002 96.283173
v -23.323153 -21.000002 96.283173
v 18.676836 20.999996 96.283188
v -23.323158 20.999996 96.283173
v 50.411461 -7.000007 -104.560211
v 50.411472 6.999994 -104.560226
v 44.436592 -7.000007 -103.535080
v 44.436592 6.999994 -103.535080
v 1.439772 7.000010 -104.560211
v 1.439772 -6.999990 -104.560211
v 7.414646 -6.999990 -103.535080
v 7.414648 7.000010 -103.535080
v -6.085983 7.000024 -104.560211
v -6.085987 -6.999974 -104.560211
v -12.060856 7.000024 -103.535080
v -12.060862 -6.999974 -103.535080
v -55.057701 -6.999975 -104.560226
v -55.057709 7.000023 -104.560211
v -49.082836 7.000023 -103.535080
v -49.082832 -6.999975 -103.535095
vt 0.000156 0.210376
vt 0.083556 0.221704
vt 0.036247 0.257333
vt 0.094774 0.139118
vt 0.011374 0.127789
vt 0.631279 0.210376
vt 0.595186 0.257332
vt 0.547878 0.221701
vt 0.536663 0.139114
vt 0.620064 0.127789
vt 0.822528 0.824530
vt 0.706883 0.824530
vt 0.706883 0.940175
vt 0.822528 0.940175
vt 0.001001 0.351940
vt 0.234293 0.351940
vt 0.234293 0.236295
vt 0.001001 0.236295
vt 0.351940 0.824530
vt 0.236295 0.824530
vt 0.236295 0.940175
vt 0.351940 0.940175
vt 0.954881 0.116646
vt 0.954881 0.001001
vt 0.949530 0.001001
vt 0.949530 0.116646
vt 0.216989 0.409544
vt 0.184698 0.426185
vt 0.158017 0.401533
vt 0.631622 0.671287
vt 0.667944 0.670719
vt 0.680902 0.704656
vt 0.725959 0.887935
vt 0.667747 0.898846
vt 0.175470 0.890707
vt 0.059825 0.890707
vt 0.059825 0.896058
vt 0.175470 0.896058
vt 0.942177 0.824530
vt 0.942177 0.940175
vt 0.947528 0.940175
vt 0.947528 0.824530
vt 0.059825 0.888705
vt 0.175470 0.888705
vt 0.175470 0.883354
vt 0.059825 0.883354
vt 0.940175 0.118648
vt 0.883354 0.118648
vt 0.883354 0.351940
vt 0.940175 0.351940
vt 0.864787 0.255232
vt 0.877745 0.221295
vt 0.914068 0.221865
vt 0.819722 0.438509
vt 0.877932 0.449422
vt 0.469587 0.587234
vt 0.469587 0.471589
vt 0.236295 0.471589
vt 0.236295 0.587234
vt 0.587234 0.236295
vt 0.471589 0.236295
vt 0.471589 0.469587
vt 0.587234 0.469587
vt 0.469587 0.763705
vt 0.469587 0.706883
vt 0.236295 0.706883
vt 0.236295 0.763705
vt 0.473410 0.401527
vt 0.446727 0.426178
vt 0.414437 0.409535
vt 0.116646 0.471589
vt 0.001001 0.471589
vt 0.001001 0.704881
vt 0.116646 0.704881
vt 0.704881 0.704881
vt 0.704881 0.589236
vt 0.471589 0.589236
vt 0.471589 0.704881
vt 0.881352 0.353942
vt 0.824530 0.353942
vt 0.824530 0.587234
vt 0.881352 0.587234
vt 0.704881 0.587234
vt 0.704881 0.471589
vt 0.471589 0.471589
vt 0.471589 0.587234
vt 0.704881 0.236295
vt 0.589236 0.236295
vt 0.589236 0.469587
vt 0.704881 0.469587
vt 0.822528 0.234293
vt 0.822528 0.118648
vt 0.589236 0.118648
vt 0.589236 0.234293
vt 0.822528 0.236295
vt 0.706883 0.236295
vt 0.706883 0.469587
vt 0.822528 0.469587
vt 0.587234 0.881352
vt 0.587234 0.824530
vt 0.353942 0.824530
vt 0.353942 0.881352
vt 0.057823 0.883354
vt 0.001001 0.883354
vt 0.001001 0.940175
vt 0.057823 0.940175
vt 0.881352 0.118648
vt 0.824530 0.118648
vt 0.824530 0.351940
vt 0.881352 0.351940
vt 0.704881 0.822528
vt 0.704881 0.706883
vt 0.471589 0.706883
vt 0.471589 0.822528
vt 0.822528 0.471589
vt 0.706883 0.471589
vt 0.706883 0.704881
vt 0.822528 0.704881
vt 0.881352 0.883354
vt 0.824530 0.883354
vt 0.824530 0.940175
vt 0.881352 0.940175
vt 0.469587 0.704881
vt 0.469587 0.589236
vt 0.236295 0.589236
vt 0.236295 0.704881
vt 0.234293 0.471589
vt 0.118648 0.471589
vt 0.118648 0.704881
vt 0.234293 0.704881
vt 0.469587 0.822528
vt 0.469587 0.765707
vt 0.236295 0.765707
vt 0.236295 0.822528
vt 0.947528 0.116646
vt 0.947528 0.001001
vt 0.942177 0.001001
vt 0.942177 0.116646
vt 0.587234 0.234293
vt 0.587234 0.118648
vt 0.353942 0.118648
vt 0.353942 0.234293
vt 0.940175 0.589236
vt 0.883354 0.589236
vt 0.883354 0.822528
vt 0.940175 0.822528
vt 0.234293 0.822528
vt 0.234293 0.765707
vt 0.001001 0.765707
vt 0.001001 0.822528
vt 0.940175 0.353942
vt 0.883354 0.353942
vt 0.883354 0.587234
vt 0.940175 0.587234
vt 0.118648 0.910764
vt 0.175470 0.910764
vt 0.175470 0.905413
vt 0.118648 0.905413
vt 0.059825 0.918117
vt 0.175470 0.918117
vt 0.175470 0.912766
vt 0.059825 0.912766
vt 0.118648 0.903411
vt 0.175470 0.903411
vt 0.175470 0.898060
vt 0.118648 0.898060
vt 0.998999 0.351940
vt 0.998999 0.118648
vt 0.942177 0.118648
vt 0.942177 0.351940
vt 0.001001 0.469587
vt 0.234293 0.469587
vt 0.234293 0.353942
vt 0.001001 0.353942
vt 0.351940 0.234293
vt 0.351940 0.001001
vt 0.236295 0.001001
vt 0.236295 0.234293
vt 0.589236 0.116646
vt 0.822528 0.116646
vt 0.822528 0.001001
vt 0.589236 0.001001
vt 0.234293 0.001001
vt 0.001001 0.001001
vt 0.001001 0.234293
vt 0.234293 0.234293
vt 0.998999 0.587234
vt 0.998999 0.353942
vt 0.942177 0.353942
vt 0.942177 0.587234
vt 0.353942 0.940175
vt 0.587234 0.940175
vt 0.587234 0.883354
vt 0.353942 0.883354
vt 0.998999 0.822528
vt 0.998999 0.589236
vt 0.942177 0.589236
vt 0.942177 0.822528
vt 0.646058 0.881352
vt 0.646058 0.824530
vt 0.618648 0.824530
vt 0.618648 0.881352
vt 0.587234 0.116646
vt 0.587234 0.001001
vt 0.353942 0.001001
vt 0.353942 0.116646
vt 0.881352 0.589236
vt 0.824530 0.589236
vt 0.824530 0.822528
vt 0.881352 0.822528
vt 0.234293 0.763705
vt 0.234293 0.706883
vt 0.001001 0.706883
vt 0.001001 0.763705
vt 0.616646 0.881352
vt 0.616646 0.824530
vt 0.589236 0.824530
vt 0.589236 0.881352
vt 0.822528 0.706883
vt 0.706883 0.706883
vt 0.706883 0.822528
vt 0.822528 0.822528
vt 0.234293 0.998999
vt 0.234293 0.883354
vt 0.177472 0.883354
vt 0.177472 0.998999
vt 0.704881 0.883354
vt 0.648060 0.883354
vt 0.648060 0.940175
vt 0.704881 0.940175
vt 0.704881 0.881352
vt 0.704881 0.824530
vt 0.677472 0.824530
vt 0.677472 0.881352
vt 0.940175 0.001001
vt 0.824530 0.001001
vt 0.824530 0.116646
vt 0.940175 0.116646
vt 0.824530 0.881352
vt 0.940175 0.881352
vt 0.940175 0.824530
vt 0.824530 0.824530
vt 0.646058 0.883354
vt 0.589236 0.883354
vt 0.589236 0.940175
vt 0.646058 0.940175
vt 0.675470 0.881352
vt 0.675470 0.824530
vt 0.648060 0.824530
vt 0.648060 0.881352
vt 0.469587 0.236295
vt 0.353942 0.236295
vt 0.353942 0.469587
vt 0.469587 0.469587
vt 0.234293 0.881352
vt 0.234293 0.824530
vt 0.001001 0.824530
vt 0.001001 0.881352
vt 0.351940 0.236295
vt 0.236295 0.236295
vt 0.236295 0.469587
vt 0.351940 0.469587
vn 0.000000 -1.000000 0.000000
vn -0.000000 1.000000 0.000000
vn 1.000000 0.000000 0.000000
vn -0.968839 -0.000000 -0.247693
vn -1.000000 -0.000000 -0.000000
vn 0.000000 0.000000 0.000000
vn -0.673850 0.000000 -0.738868
vn 0.733214 -0.000000 0.679998
vn 0.673850 0.000000 -0.738868
vn -0.733214 -0.000000 0.679998
vn -0.830059 -0.000000 0.557675
vn -0.279679 0.000000 0.960094
vn -0.800604 -0.000000 -0.599193
vn 0.830059 -0.000000 0.557675
vn 0.080853 0.878289 -0.471244
vn 0.800605 -0.000000 -0.599193
vn -0.080853 -0.878289 -0.471244
vn -0.800604 0.000000 -0.599194
vn 0.830059 -0.000000 0.557676
vn 0.050414 -0.954527 -0.293832
vn 0.000000 0.968839 -0.247692
vn 0.000000 -0.968839 -0.247693
vn 0.968839 0.000000 -0.247692
vn -0.000000 -0.000000 1.000000
vn -0.169104 -0.000000 -0.985598
vn 0.234396 -0.000000 -0.972141
vn -0.050414 0.954527 -0.293831
vn -0.050414 -0.954526 -0.293833
vn 0.169103 -0.000000 -0.985598
vn 0.889024 0.000000 -0.457860
vn -0.994529 0.000000 0.104459
vn 0.080853 -0.878289 -0.471244
vn -0.169103 0.000000 -0.985598
vn -0.889024 0.000001 -0.457860
vn 0.994529 -0.000000 0.104459
vn -0.080853 0.878289 -0.471244
vn 0.169103 0.000001 -0.985598
vn -0.234396 0.000000 -0.972141
vn 0.050414 0.954527 -0.293832
vn 0.279679 -0.000000 0.960094
usemtl Material
s off
f 1/1/1 4/2/1 10/3/1
f 1/1/1 3/4/1 4/2/1
f 1/1/1 2/5/1 3/4/1
f 5/6/2 9/7/2 8/8/2
f 5/6/2 8/8/2 7/9/2
f 5/6/2 7/9/2 6/10/2
f 1/11/3 5/12/3 6/13/3
f 1/11/3 6/13/3 2/14/3
f 48/15/4 50/16/4 7/17/4
f 48/15/4 7/17/4 3/18/4
f 3/19/5 7/20/5 8/21/5
f 3/19/5 8/21/5 4/22/5
f 9/23/6 5/24/6 12/25/6
f 9/23/6 12/25/6 13/26/6
f 19/27/1 26/28/1 22/29/1
f 4/2/1 19/27/1 22/29/1
f 10/3/1 4/2/1 22/29/1
f 16/30/2 24/31/2 17/32/2
f 13/33/2 16/30/2 17/32/2
f 13/33/2 12/34/2 16/30/2
f 5/35/6 1/36/6 11/37/6
f 5/35/6 11/37/6 12/38/6
f 1/39/6 10/40/6 14/41/6
f 1/39/6 14/41/6 11/42/6
f 13/43/6 14/44/6 10/45/6
f 13/43/6 10/45/6 9/46/6
f 29/47/1 27/48/1 15/49/1
f 29/47/1 15/49/1 23/50/1
f 18/51/1 23/52/1 15/53/1
f 18/51/1 15/53/1 14/54/1
f 15/53/1 11/55/1 14/54/1
f 17/56/7 18/57/7 14/58/7
f 17/56/7 14/58/7 13/59/7
f 15/60/8 16/61/8 12/62/8
f 15/60/8 12/62/8 11/63/8
f 38/64/1 36/65/1 22/66/1
f 38/64/1 22/66/1 26/67/1
f 21/68/2 25/69/2 20/70/2
f 21/68/2 20/70/2 8/8/2
f 21/68/2 8/8/2 9/7/2
f 9/71/9 10/72/9 22/73/9
f 9/71/9 22/73/9 21/74/9
f 4/75/10 8/76/10 20/77/10
f 4/75/10 20/77/10 19/78/10
f 23/79/1 18/80/1 32/81/1
f 23/79/1 32/81/1 33/82/1
f 19/83/11 20/84/11 40/85/11
f 19/83/11 40/85/11 39/86/11
f 58/87/12 57/88/12 29/89/12
f 58/87/12 29/89/12 30/90/12
f 30/91/13 29/92/13 23/93/13
f 30/91/13 23/93/13 24/94/13
f 27/95/14 28/96/14 16/97/14
f 27/95/14 16/97/14 15/98/14
f 24/99/2 16/100/2 28/101/2
f 24/99/2 28/101/2 30/102/2
f 62/103/15 59/104/15 31/105/15
f 62/103/15 31/105/15 34/106/15
f 34/107/2 31/108/2 17/109/2
f 34/107/2 17/109/2 24/110/2
f 31/111/11 32/112/11 18/113/11
f 31/111/11 18/113/11 17/114/11
f 24/115/16 23/116/16 33/117/16
f 24/115/16 33/117/16 34/118/16
f 66/119/17 64/120/17 36/121/17
f 66/119/17 36/121/17 38/122/17
f 37/123/18 38/124/18 26/125/18
f 37/123/18 26/125/18 25/126/18
f 21/127/19 22/128/19 36/129/19
f 21/127/19 36/129/19 35/130/19
f 25/131/2 21/132/2 35/133/2
f 25/131/2 35/133/2 37/134/2
f 41/135/6 42/136/6 46/137/6
f 41/135/6 46/137/6 45/138/6
f 25/139/16 26/140/16 42/141/16
f 25/139/16 42/141/16 41/142/16
f 41/143/2 40/144/2 20/145/2
f 41/143/2 20/145/2 25/146/2
f 26/147/1 19/148/1 39/149/1
f 26/147/1 39/149/1 42/150/1
f 46/151/20 43/152/20 67/153/20
f 46/151/20 67/153/20 70/154/20
f 42/155/6 39/156/6 43/157/6
f 42/155/6 43/157/6 46/158/6
f 39/159/6 40/160/6 44/161/6
f 39/159/6 44/161/6 43/162/6
f 45/163/6 44/164/6 40/165/6
f 45/163/6 40/165/6 41/166/6
f 52/167/5 54/168/5 50/169/5
f 52/167/5 50/169/5 48/170/5
f 6/171/21 7/172/21 50/173/21
f 6/171/21 50/173/21 49/174/21
f 47/175/22 48/176/22 3/177/22
f 47/175/22 3/177/22 2/178/22
f 2/179/23 6/180/23 49/181/23
f 2/179/23 49/181/23 47/182/23
f 51/183/24 53/184/24 54/185/24
f 51/183/24 54/185/24 52/186/24
f 49/187/2 50/188/2 54/189/2
f 49/187/2 54/189/2 53/190/2
f 51/191/1 52/192/1 48/193/1
f 51/191/1 48/193/1 47/194/1
f 47/195/3 49/196/3 53/197/3
f 47/195/3 53/197/3 51/198/3
f 56/199/25 55/200/25 57/201/25
f 56/199/25 57/201/25 58/202/25
f 55/203/26 56/204/26 28/205/26
f 55/203/26 28/205/26 27/206/26
f 30/207/27 28/208/27 56/209/27
f 30/207/27 56/209/27 58/210/27
f 57/211/28 55/212/28 27/213/28
f 57/211/28 27/213/28 29/214/28
f 62/215/29 61/216/29 60/217/29
f 62/215/29 60/217/29 59/218/29
f 34/219/30 33/220/30 61/221/30
f 34/219/30 61/221/30 62/222/30
f 59/223/31 60/224/31 32/225/31
f 59/223/31 32/225/31 31/226/31
f 33/227/32 32/228/32 60/229/32
f 33/227/32 60/229/32 61/230/32
f 63/231/33 64/232/33 66/233/33
f 63/231/33 66/233/33 65/234/33
f 65/235/34 66/236/34 38/237/34
f 65/235/34 38/237/34 37/238/34
f 35/239/35 36/240/35 64/241/35
f 35/239/35 64/241/35 63/242/35
f 37/243/36 35/244/36 63/245/36
f 37/243/36 63/245/36 65/246/36
f 69/247/37 70/248/37 67/249/37
f 69/247/37 67/249/37 68/250/37
f 43/251/38 44/252/38 68/253/38
f 43/251/38 68/253/38 67/254/38
f 69/255/39 68/256/39 44/257/39
f 69/255/39 44/257/39 45/258/39
f 45/259/40 46/260/40 70/261/40
f 45/259/40 70/261/40 69/262/40
